  <svg width="24" height="24" viewBox="0 0 24 24" fill="none" xmlns="http://www.w3.org/2000/svg">
<circle cx="12" cy="12" r="12" fill="#F3B92F"/>
<path fill-rule="evenodd" clip-rule="evenodd" d="M5.55251 13.8109L3.72675 12.0709L5.60979 10.2764L7.43555 12.0163L5.55251 13.8109ZM15.4653 10.694L12.1499 7.53357L8.83264 10.694L7.00689 8.95401L12.135 4.06689L12.1493 4.08014L12.1629 4.06689L17.291 8.95401L15.4653 10.694ZM12.1278 19.9335L12.1141 19.9199L12.0998 19.9335L6.97173 15.0464L8.79749 13.3064L12.1141 16.467L15.4301 13.3064L17.2559 15.0464L12.1278 19.9335ZM12.115 13.8658L10.2893 12.1259L12.1723 10.3313L13.998 12.0713L12.115 13.8658ZM18.6482 13.7237L16.8225 11.9838L18.7055 10.1892L20.5312 11.9292L18.6482 13.7237Z" fill="white"/>
</svg>
