<svg xmlns="http://www.w3.org/2000/svg" xmlns:xlink="http://www.w3.org/1999/xlink" aria-hidden="true" role="img" class="iconify iconify--icon-park-outline" width="32" height="32" preserveAspectRatio="xMidYMid meet" viewBox="0 0 48 48"><g fill="none"><g stroke="currentColor" stroke-linecap="round" stroke-width="4" clip-path="url(#IconifyId182534a9ab8bf9b6c81)"><path d="m35.786 39.083l2.828-2.828a6 6 0 0 0 0-8.486v0a6 6 0 0 0-8.485 0l-2.462 2.462m-10.266-6.705l7.071-7.07a6 6 0 0 0 0-8.486v0a6 6 0 0 0-8.485 0l-7.071 7.071"></path><path d="m18.283 22.645l-8.66 8.66a6 6 0 0 0 0 8.486v0a6 6 0 0 0 8.485 0l9.9-9.9"></path><path stroke-linejoin="round" d="M15 9H7"></path></g><defs><clipPath id="IconifyId182534a9ab8bf9b6c81"><path fill="currentColor" d="M0 0h48v48H0z"></path></clipPath></defs></g></svg>
